<?xml version="1.0" encoding="UTF-8"?>
<!-- Generator: visioncortex VTracer 0.6.3 -->
<svg version="1.1" xmlns="http://www.w3.org/2000/svg" width="1280" height="1280">
<path d="M0 0 C422.4 0 844.8 0 1280 0 C1280 422.4 1280 844.8 1280 1280 C857.6 1280 435.2 1280 0 1280 C0 857.6 0 435.2 0 0 Z " fill="#FDFDFD" transform="translate(0,0)"/>
<path d="M0 0 C1.05 -0 2.11 -0 3.19 -0 C5.4 0 7.61 0.01 9.81 0.03 C13.18 0.05 16.54 0.05 19.9 0.04 C22.06 0.05 24.22 0.05 26.38 0.06 C27.37 0.06 28.37 0.06 29.39 0.06 C35.11 0.12 40 0.77 45.49 2.36 C48.34 2.88 51.2 3.35 54.07 3.8 C56.49 4.36 56.49 4.36 59.49 6.36 C60.15 6.03 60.81 5.7 61.49 5.36 C63.5 6.34 65.5 7.35 67.49 8.36 C73.44 10.7 79.48 12.74 85.61 14.55 C87.77 15.49 88.86 16.69 90.49 18.36 C92.22 19.35 92.22 19.35 94.11 20.18 C98.07 22.08 101.62 24.36 105.23 26.84 C108.1 28.78 111.07 30.54 114.05 32.29 C114.53 32.64 115 33 115.49 33.36 C115.49 34.02 115.49 34.68 115.49 35.36 C116.07 35.63 116.66 35.9 117.26 36.17 C130.69 43.35 142.94 59.11 150.1 72.17 C151.45 74.48 151.45 74.48 153.59 76.45 C155.97 78.85 156.49 81.17 157.49 84.36 C158.15 84.69 158.81 85.02 159.49 85.36 C160.36 87.08 161.16 88.84 161.93 90.61 C163.19 93.54 164.43 96.27 166.09 99 C167.64 101.62 168.23 104.13 168.89 107.09 C169.55 109.61 170.47 111.94 171.43 114.36 C173.48 119.81 174.54 125.25 175.45 130.97 C176.02 134.4 176.52 136.42 178.49 139.36 C179.87 148.26 179.64 157.45 179.61 166.43 C179.62 167.6 179.62 168.78 179.62 169.99 C179.61 180.25 179.32 190.28 176.68 200.24 C176.5 200.9 176.33 201.57 176.15 202.25 C175.61 204.29 175.05 206.33 174.49 208.36 C174.31 209.03 174.13 209.69 173.94 210.38 C170.85 221.78 170.85 221.78 168.49 226.36 C168.18 227.52 167.87 228.67 167.55 229.86 C166.53 233.22 165.55 234.65 163.49 237.36 C162.96 238.68 162.46 240.02 161.99 241.36 C160.88 244.51 159.57 246.74 157.49 249.36 C157.18 250.19 156.87 251.01 156.55 251.86 C155.33 254.75 153.69 256.16 151.49 258.36 C150.81 260.02 150.14 261.69 149.49 263.36 C147.8 265.68 147.8 265.68 145.49 268.36 C145.01 268.93 144.52 269.49 144.03 270.07 C139.58 275.23 134.92 280.11 130.11 284.93 C129.41 285.64 128.71 286.36 127.98 287.1 C121.41 293.68 114.33 299.36 106.49 304.36 C105.87 304.77 105.26 305.19 104.62 305.61 C101.19 307.85 98.01 309.63 94.11 310.93 C90.42 311.91 90.42 311.91 89.54 314.39 C88.49 316.36 88.49 316.36 86.39 317.05 C84.79 317.26 83.19 317.47 81.58 317.68 C79.29 318.15 79.29 318.15 78.45 320.4 C78.13 321.05 77.82 321.7 77.49 322.36 C75.47 322.59 73.46 322.81 71.44 322.95 C68.38 323.6 67.34 325.97 65.49 328.36 C63.16 328.7 60.82 329.04 58.49 329.36 C56.8 331.01 55.13 332.68 53.49 334.36 C51.17 335.08 48.84 335.75 46.49 336.36 C45.49 337.36 44.49 338.36 43.49 339.36 C41.66 340.14 41.66 340.14 39.68 340.74 C35.43 342.21 32.77 344.33 29.49 347.36 C31.9 348.71 34.05 349.51 36.74 350.24 C40.32 351.31 43.28 352.7 46.57 354.42 C48.66 355.5 48.66 355.5 51.74 356.43 C54.49 357.36 54.49 357.36 56.49 358.93 C58.47 360.58 58.47 360.58 61.3 360.8 C64.56 361.38 66.57 362.53 69.36 364.25 C72.96 366.13 76.84 367.18 80.72 368.34 C83.46 369.35 85.22 370.57 87.49 372.36 C88.46 372.67 89.43 372.98 90.43 373.3 C93.8 374.47 95.75 376.11 98.49 378.36 C101.17 379.6 101.17 379.6 103.49 380.36 C103.49 381.02 103.49 381.68 103.49 382.36 C104.35 382.59 105.22 382.82 106.11 383.05 C110.12 384.61 112.29 386.53 115.49 389.36 C116.15 389.69 116.81 390.02 117.49 390.36 C117.49 391.02 117.49 391.68 117.49 392.36 C118.32 392.73 118.32 392.73 119.18 393.11 C121.91 394.59 124.16 396.3 126.49 398.36 C126.49 399.02 126.49 399.68 126.49 400.36 C127.32 400.7 127.32 400.7 128.18 401.05 C133.42 404.03 136.93 409.05 140.49 413.8 C142.98 417.11 145.49 420.39 148.16 423.55 C151.54 427.63 153.94 431.56 155.49 436.68 C155.82 437.56 156.15 438.45 156.49 439.36 C157.12 439.63 157.74 439.9 158.39 440.18 C161.4 441.88 161.84 443.87 163.05 447.05 C163.47 448.13 163.89 449.22 164.33 450.33 C164.71 451.33 165.09 452.33 165.49 453.36 C166.02 454.6 166.56 455.83 167.11 457.05 C168.51 460.41 169.65 463.78 170.74 467.25 C171.44 469.38 171.44 469.38 172.51 471.35 C173.57 473.52 174.07 475.5 174.55 477.86 C175.24 481.17 175.24 481.17 176.05 484.46 C176.49 486.36 176.49 486.36 176.49 489.36 C177.15 490.35 177.81 491.34 178.49 492.36 C180.03 501.1 179.64 510.23 179.62 519.08 C179.61 521.29 179.62 523.51 179.62 525.72 C179.64 549.64 179.64 549.64 176.49 554.36 C175.89 556.55 175.89 556.55 175.49 558.96 C175.32 559.84 175.16 560.73 174.99 561.64 C174.65 563.5 174.32 565.36 173.99 567.22 C173.82 568.11 173.66 568.99 173.49 569.9 C173.34 570.71 173.2 571.52 173.05 572.35 C172.49 574.36 172.49 574.36 170.49 576.36 C169.72 579.85 169.15 583.36 168.56 586.88 C167.31 590.94 165.56 592.52 162.49 595.36 C161.78 597.68 161.11 600.02 160.49 602.36 C159.5 603.02 158.51 603.68 157.49 604.36 C156.46 606.68 155.46 609.02 154.49 611.36 C153.52 612.72 152.52 614.06 151.49 615.36 C151.18 616.02 150.87 616.68 150.55 617.36 C149.24 619.84 147.47 621.38 145.49 623.36 C144.89 624.28 144.29 625.19 143.67 626.14 C135.99 637.48 124.88 647.89 113.49 655.36 C112.71 656.17 112.71 656.17 111.93 656.99 C110.02 658.81 107.92 659.39 105.49 660.36 C104.78 661.11 104.78 661.11 104.05 661.86 C102.49 663.36 102.49 663.36 99.43 664.3 C98.46 664.65 97.49 665 96.49 665.36 C96.19 666.02 95.89 666.69 95.58 667.37 C94.49 669.36 94.49 669.36 92.43 670.05 C91.25 670.21 91.25 670.21 90.05 670.36 C85.89 671.1 84.93 671.92 82.49 675.36 C80.15 675.7 77.82 676.03 75.49 676.36 C74.81 677.32 74.81 677.32 74.11 678.3 C72.1 680.86 71.13 680.8 67.99 681.36 C64.39 681.9 64.39 681.9 61.86 684.36 C61.41 685.02 60.96 685.68 60.49 686.36 C58.16 687.04 55.82 687.71 53.49 688.36 C52.83 689.02 52.17 689.68 51.49 690.36 C48.81 693.05 46.1 693.38 42.49 694.36 C41.48 695.36 40.48 696.36 39.49 697.36 C37.61 698.32 37.61 698.32 35.49 699.18 C28.86 701.99 22.48 705.37 16.49 709.36 C15.48 709.67 14.47 709.98 13.43 710.3 C10.21 711.13 10.21 711.13 8.49 714.36 C6.22 715.28 3.94 715.88 1.58 716.52 C-0.86 717.27 -0.86 717.27 -2.51 720.36 C-4.81 721.01 -7.06 721.31 -9.42 721.64 C-12.19 722.6 -12.27 723.82 -13.51 726.36 C-15.53 726.59 -17.54 726.81 -19.56 726.95 C-22.62 727.6 -23.66 729.97 -25.51 732.36 C-27.84 732.73 -30.17 733.07 -32.51 733.36 C-33.19 734.29 -33.19 734.29 -33.89 735.24 C-36.18 738.24 -38.79 738.6 -42.36 739.55 C-44.76 740.46 -45.75 741.55 -47.51 743.36 C-49.41 744.21 -49.41 744.21 -51.45 744.86 C-54.64 745.98 -56.83 747.29 -59.51 749.36 C-61.84 750.38 -64.17 751.38 -66.51 752.36 C-68.19 753.35 -69.86 754.34 -71.51 755.36 C-72.58 755.88 -73.66 756.39 -74.76 756.93 C-77.61 758.07 -77.61 758.07 -78.51 760.36 C-79.58 760.65 -80.66 760.94 -81.76 761.24 C-85.51 762.11 -85.51 762.11 -88.01 764.36 C-91.03 766.77 -93.83 767.32 -97.51 768.36 C-98.17 769.35 -98.83 770.34 -99.51 771.36 C-101.78 772.28 -104.06 772.88 -106.42 773.52 C-108.86 774.27 -108.86 774.27 -110.51 777.36 C-112.68 777.88 -112.68 777.88 -115.14 778.05 C-115.95 778.12 -116.77 778.18 -117.61 778.25 C-118.55 778.31 -118.55 778.31 -119.51 778.36 C-120.17 780.01 -120.83 781.66 -121.51 783.36 C-122.45 783.4 -122.45 783.4 -123.41 783.44 C-124.23 783.5 -125.04 783.55 -125.89 783.61 C-126.7 783.66 -127.51 783.71 -128.35 783.75 C-129.06 783.96 -129.78 784.16 -130.51 784.36 C-131.2 785.69 -131.86 787.02 -132.51 788.36 C-134.57 789.3 -134.57 789.3 -136.95 789.93 C-140.42 790.85 -142.05 791.78 -144.51 794.36 C-146.84 795.38 -149.17 796.38 -151.51 797.36 C-152.15 797.86 -152.79 798.35 -153.45 798.86 C-156.02 800.73 -158.65 801.56 -161.62 802.61 C-163.91 803.52 -165.59 804.84 -167.51 806.36 C-169.18 807.03 -170.85 807.7 -172.51 808.36 C-173.13 808.84 -173.75 809.31 -174.39 809.8 C-176.51 811.36 -176.51 811.36 -180.07 812.86 C-183.41 814.06 -183.41 814.06 -185.01 815.93 C-186.51 817.36 -186.51 817.36 -190.01 818.3 C-193.56 818.98 -193.56 818.98 -194.95 821.43 C-196.51 823.36 -196.51 823.36 -198.36 823.7 C-199.42 823.78 -199.42 823.78 -200.51 823.86 C-202.63 823.99 -202.63 823.99 -204.51 824.36 C-205.53 825.69 -206.52 827.02 -207.51 828.36 C-209.8 829.26 -212.08 829.93 -214.45 830.55 C-216.87 831.28 -216.87 831.28 -218.51 834.36 C-220.52 834.85 -222.54 835.33 -224.56 835.77 C-227.27 836.6 -228.57 838.35 -230.51 840.36 C-232.84 841.06 -235.17 841.72 -237.51 842.36 C-238.51 843.36 -239.51 844.36 -240.51 845.36 C-242.6 846.43 -242.6 846.43 -244.89 847.36 C-248.29 848.81 -251.37 850.41 -254.51 852.36 C-256.5 853.38 -258.5 854.38 -260.51 855.36 C-267.03 858.53 -267.03 858.53 -273.32 862.11 C-275.72 863.48 -277.79 863.97 -280.51 864.36 C-280.84 865.35 -281.17 866.34 -281.51 867.36 C-283.44 868.13 -285.37 868.88 -287.34 869.55 C-289.95 870.53 -292.2 871.95 -294.58 873.39 C-297.7 874.96 -301.01 875.78 -304.38 876.65 C-306.69 877.25 -306.69 877.25 -308.51 879.36 C-310.42 880.02 -310.42 880.02 -312.73 880.58 C-313.58 880.79 -314.43 881 -315.31 881.22 C-316.2 881.43 -317.09 881.64 -318.01 881.86 C-318.87 882.08 -319.73 882.29 -320.62 882.51 C-330.23 884.85 -339.65 886.65 -349.51 887.49 C-350.43 887.57 -351.35 887.66 -352.3 887.75 C-371.53 889.46 -392.36 888.21 -410.51 881.36 C-412.28 880.83 -414.05 880.31 -415.82 879.8 C-420.14 878.51 -424.32 877.01 -428.51 875.36 C-429.39 875.03 -430.26 874.7 -431.16 874.36 C-432.51 873.83 -432.51 873.83 -433.89 873.3 C-434.72 872.98 -435.55 872.66 -436.41 872.33 C-438.51 871.36 -438.51 871.36 -440.51 869.36 C-441.97 868.78 -441.97 868.78 -443.45 868.18 C-456.16 862.93 -467.06 853.05 -477.51 844.36 C-478.51 843.57 -478.51 843.57 -479.54 842.76 C-484.29 838.85 -488.29 834.37 -492.32 829.74 C-492.89 829.09 -493.45 828.45 -494.03 827.78 C-501.51 819.06 -501.51 819.06 -501.51 815.36 C-502.17 815.36 -502.83 815.36 -503.51 815.36 C-504.16 813.97 -504.16 813.97 -504.82 812.55 C-506.24 809.47 -506.24 809.47 -508.02 807.91 C-510.18 805.67 -510.74 803.22 -511.67 800.3 C-512.4 798.28 -512.4 798.28 -514.06 796.88 C-516.62 794.2 -516.22 790.94 -516.51 787.36 C-517.17 787.36 -517.83 787.36 -518.51 787.36 C-518.51 786.37 -518.51 785.38 -518.51 784.36 C-519.17 784.36 -519.83 784.36 -520.51 784.36 C-523.96 774.95 -523.96 774.95 -523.51 770.36 C-524.17 770.03 -524.83 769.7 -525.51 769.36 C-526.9 764.12 -527.65 758.71 -528.51 753.36 C-528.65 752.5 -528.79 751.63 -528.94 750.74 C-532.13 730.77 -531.88 712.85 -528.88 692.85 C-528.57 690.77 -528.29 688.68 -528.01 686.59 C-527.21 680.98 -525.84 676.14 -523.59 670.95 C-521.96 667.03 -520.72 662.98 -519.44 658.93 C-518.51 656.36 -518.51 656.36 -516.51 653.36 C-516.18 652.04 -515.89 650.71 -515.64 649.36 C-514.77 645.56 -513.67 644.64 -510.51 642.36 C-509.83 640.03 -509.17 637.7 -508.51 635.36 C-506.57 633.24 -506.57 633.24 -504.51 631.36 C-503.48 629.72 -502.48 628.05 -501.51 626.36 C-497.03 619.4 -492.39 613.22 -486.51 607.36 C-485.58 606.41 -484.65 605.45 -483.71 604.5 C-475.5 596.11 -467.04 588.64 -456.76 582.8 C-454.25 581.41 -454.25 581.41 -452.51 578.36 C-450.64 577.99 -450.64 577.99 -448.51 577.93 C-446.38 577.78 -446.38 577.78 -444.51 577.36 C-443.81 576.05 -443.15 574.71 -442.51 573.36 C-440.54 572.45 -438.57 571.8 -436.48 571.17 C-434.24 570.25 -433.2 569.08 -431.51 567.36 C-429.6 566.37 -429.6 566.37 -427.45 565.49 C-418.51 561.68 -410.02 557.05 -401.51 552.36 C-384.81 543.19 -384.81 543.19 -380.51 542.36 C-380.84 541.37 -381.17 540.38 -381.51 539.36 C-384.06 538.31 -384.06 538.31 -387.51 537.36 C-393.36 535.35 -399.07 533.31 -404.51 530.36 C-404.51 529.7 -404.51 529.04 -404.51 528.36 C-405.06 528.27 -405.6 528.17 -406.16 528.07 C-411.23 527.06 -415.61 525.56 -420.27 523.36 C-422.44 522.4 -424.56 521.68 -426.82 520.99 C-433.22 518.94 -440.72 516.15 -445.51 511.36 C-447.5 510.66 -449.5 509.99 -451.51 509.36 C-452.17 509.03 -452.83 508.7 -453.51 508.36 C-453.51 507.7 -453.51 507.04 -453.51 506.36 C-454.04 506.13 -454.56 505.89 -455.1 505.65 C-458.3 503.94 -461.2 501.86 -464.14 499.74 C-464.75 499.3 -465.37 498.85 -466 498.4 C-480.55 487.88 -480.55 487.88 -484.51 483.36 C-484.51 482.7 -484.51 482.04 -484.51 481.36 C-485.17 481.36 -485.83 481.36 -486.51 481.36 C-488.17 479.75 -488.17 479.75 -490.01 477.61 C-490.62 476.92 -491.23 476.22 -491.86 475.5 C-493.39 473.52 -494.48 471.64 -495.51 469.36 C-496.17 469.36 -496.83 469.36 -497.51 469.36 C-498.89 467.32 -500.15 465.3 -501.39 463.18 C-503.33 459.86 -505.26 456.67 -507.67 453.67 C-509.3 451.62 -510.21 450.1 -511.07 447.68 C-512.25 444.15 -512.25 444.15 -515.51 442.36 C-515.66 441.31 -515.8 440.26 -515.95 439.18 C-516.5 435.46 -517.58 433.48 -519.45 430.32 C-521.27 426.97 -522.38 423.43 -523.51 419.8 C-523.89 418.58 -523.89 418.58 -524.28 417.33 C-527.23 407.51 -528.9 397.48 -530.51 387.36 C-530.74 386.01 -530.97 384.67 -531.2 383.32 C-533.21 370.75 -532.6 358.91 -530.7 346.36 C-530.53 345.2 -530.37 344.03 -530.2 342.82 C-528.62 332.08 -526.71 321.6 -522.42 311.59 C-521.58 309.53 -520.95 307.52 -520.39 305.36 C-519.51 302.36 -519.51 302.36 -517.51 300.36 C-517 298.99 -516.55 297.59 -516.14 296.18 C-514.75 291.8 -512.92 288.27 -510.51 284.36 C-509.98 283.44 -509.44 282.51 -508.89 281.55 C-507.51 279.36 -507.51 279.36 -505.51 277.36 C-505.06 276.25 -504.6 275.14 -504.14 273.99 C-502.53 270.4 -501.27 269.03 -498.51 266.36 C-497.03 264.61 -495.58 262.84 -494.14 261.05 C-493.35 260.08 -492.56 259.11 -491.74 258.11 C-490.45 256.52 -489.16 254.93 -487.88 253.34 C-484.15 248.84 -479.99 245.09 -475.51 241.36 C-474.65 240.64 -473.79 239.91 -472.91 239.17 C-457.81 226.61 -457.81 226.61 -451.85 224.36 C-449.19 223.48 -449.19 223.48 -447.51 220.36 C-445.67 219.77 -445.67 219.77 -443.57 219.43 C-440.26 218.8 -440.26 218.8 -438.01 216.36 C-435.9 213.55 -433.76 213.6 -430.43 212.93 C-427.73 212.13 -426.44 210.36 -424.51 208.36 C-422.19 207.67 -419.85 207 -417.51 206.36 C-416.5 205.38 -415.5 204.38 -414.51 203.36 C-412.72 202.35 -412.72 202.35 -410.75 201.46 C-410.02 201.13 -409.29 200.79 -408.55 200.45 C-407.79 200.11 -407.04 199.77 -406.26 199.43 C-400.84 196.97 -395.64 194.39 -390.51 191.36 C-389.15 190.56 -389.15 190.56 -387.76 189.74 C-385.99 188.65 -384.24 187.52 -382.51 186.36 C-380.75 185.93 -380.75 185.93 -378.95 185.49 C-377.81 185.12 -376.68 184.75 -375.51 184.36 C-375.05 183.37 -375.05 183.37 -374.58 182.36 C-373.51 180.36 -373.51 180.36 -371.38 179.64 C-370.18 179.47 -370.18 179.47 -368.95 179.3 C-366.56 179.02 -366.56 179.02 -364.51 178.36 C-364.18 177.37 -363.85 176.38 -363.51 175.36 C-361.55 174.77 -361.55 174.77 -359.14 174.43 C-355.49 173.89 -355.49 173.89 -353.01 171.36 C-351.1 168.82 -350.08 168.91 -347.01 168.36 C-343.42 167.83 -343.42 167.83 -340.89 165.36 C-340.43 164.7 -339.98 164.04 -339.51 163.36 C-337.18 162.69 -334.85 162.02 -332.51 161.36 C-331.85 160.7 -331.19 160.04 -330.51 159.36 C-327.83 156.68 -325.12 156.35 -321.51 155.36 C-320.51 154.37 -319.51 153.37 -318.51 152.36 C-316.64 151.41 -316.64 151.41 -314.51 150.55 C-309.93 148.61 -305.64 146.3 -301.3 143.88 C-297.76 141.95 -294.14 140.19 -290.51 138.44 C-288.36 137.41 -288.36 137.41 -286.51 135.36 C-284.81 134.93 -284.81 134.93 -283.07 134.49 C-279.46 133.76 -279.46 133.76 -278.14 131.3 C-276.06 128.82 -274.98 128.95 -271.82 128.61 C-270.39 128.51 -268.95 128.42 -267.51 128.36 C-267.18 126.71 -266.85 125.06 -266.51 123.36 C-265.89 123.34 -265.26 123.31 -264.61 123.29 C-263.8 123.23 -262.98 123.17 -262.14 123.11 C-261.32 123.07 -260.51 123.02 -259.68 122.97 C-258.96 122.77 -258.25 122.57 -257.51 122.36 C-256.83 121.04 -256.17 119.7 -255.51 118.36 C-253.45 117.68 -253.45 117.68 -251.07 117.36 C-246.87 116.61 -246.02 115.81 -243.51 112.36 C-241.26 111.47 -239.01 110.8 -236.67 110.17 C-234.27 109.27 -233.28 108.17 -231.51 106.36 C-229.52 105.5 -227.52 104.87 -225.45 104.21 C-223.26 103.26 -222.15 102.06 -220.51 100.36 C-218.9 99.66 -217.29 98.96 -215.66 98.3 C-212.1 96.74 -208.75 94.8 -205.36 92.91 C-201.84 91 -198.26 89.23 -194.66 87.46 C-192.36 86.33 -192.36 86.33 -189.7 84.61 C-187.51 83.36 -187.51 83.36 -184.82 82.93 C-184.06 82.74 -183.3 82.55 -182.51 82.36 C-182.23 81.71 -181.94 81.06 -181.64 80.39 C-180.51 78.36 -180.51 78.36 -178.45 77.68 C-177.67 77.57 -176.88 77.47 -176.07 77.36 C-172.43 76.87 -172.43 76.87 -170.01 74.3 C-168.51 72.36 -168.51 72.36 -166.34 71.88 C-164.06 71.64 -161.8 71.46 -159.51 71.36 C-159.18 70.04 -158.85 68.72 -158.51 67.36 C-157.81 67.27 -157.11 67.17 -156.39 67.07 C-155.48 66.92 -154.57 66.77 -153.64 66.61 C-152.28 66.4 -152.28 66.4 -150.89 66.19 C-148.36 65.61 -148.36 65.61 -147.44 63.38 C-147.13 62.72 -146.83 62.05 -146.51 61.36 C-144.67 60.42 -144.67 60.42 -142.57 59.8 C-139.35 58.83 -137.85 57.74 -135.51 55.36 C-133.64 54.41 -133.64 54.41 -131.51 53.55 C-126.92 51.6 -122.63 49.29 -118.27 46.87 C-113.17 44.08 -107.94 41.53 -102.7 39.01 C-101.79 38.57 -100.88 38.13 -99.95 37.68 C-98.71 37.08 -98.71 37.08 -97.45 36.48 C-95.36 35.51 -95.36 35.51 -94.51 33.36 C-92.55 32.65 -92.55 32.65 -90.14 31.99 C-86.48 30.95 -86.48 30.95 -83.95 28.24 C-82.51 26.36 -82.51 26.36 -80.64 26.03 C-79.91 25.97 -79.19 25.92 -78.45 25.86 C-76.5 25.62 -76.5 25.62 -74.51 25.36 C-74.03 24.39 -74.03 24.39 -73.54 23.39 C-72.51 21.36 -72.51 21.36 -70.45 20.68 C-69.67 20.57 -68.88 20.47 -68.07 20.36 C-63.89 19.62 -62.99 18.81 -60.51 15.36 C-58.57 14.84 -56.63 14.32 -54.66 13.92 C-52.49 13.36 -50.87 12.58 -48.92 11.49 C-44.04 8.98 -38.99 7.66 -33.7 6.3 C-32.78 6.06 -31.86 5.81 -30.91 5.56 C-29.16 5.1 -27.41 4.64 -25.65 4.19 C-23.8 3.7 -21.95 3.19 -20.12 2.62 C-13.28 0.56 -7.12 -0.07 0 0 Z " fill="#FCFCFC" transform="translate(793.51171875,177.63671875)"/>
<path d="M0 0 C1.05 -0 2.11 -0 3.19 -0 C5.4 0 7.61 0.01 9.81 0.03 C13.18 0.05 16.54 0.05 19.9 0.04 C22.06 0.05 24.22 0.05 26.38 0.06 C27.37 0.06 28.37 0.06 29.39 0.06 C35.11 0.12 40 0.77 45.49 2.36 C48.34 2.88 51.2 3.35 54.07 3.8 C56.49 4.36 56.49 4.36 59.49 6.36 C60.15 6.03 60.81 5.7 61.49 5.36 C63.5 6.34 65.5 7.35 67.49 8.36 C73.44 10.7 79.48 12.74 85.61 14.55 C87.77 15.49 88.86 16.69 90.49 18.36 C92.22 19.35 92.22 19.35 94.11 20.18 C98.07 22.08 101.62 24.36 105.23 26.84 C108.1 28.78 111.07 30.54 114.05 32.29 C114.53 32.64 115 33 115.49 33.36 C115.49 34.02 115.49 34.68 115.49 35.36 C116.07 35.63 116.66 35.9 117.26 36.17 C130.69 43.35 142.94 59.11 150.1 72.17 C151.45 74.48 151.45 74.48 153.59 76.45 C155.97 78.85 156.49 81.17 157.49 84.36 C158.15 84.69 158.81 85.02 159.49 85.36 C160.36 87.08 161.16 88.84 161.93 90.61 C163.19 93.54 164.43 96.27 166.09 99 C167.64 101.62 168.23 104.13 168.89 107.09 C169.55 109.61 170.47 111.94 171.43 114.36 C173.48 119.81 174.54 125.25 175.45 130.97 C176.02 134.4 176.52 136.42 178.49 139.36 C179.87 148.26 179.64 157.45 179.61 166.43 C179.62 167.6 179.62 168.78 179.62 169.99 C179.61 180.25 179.32 190.28 176.68 200.24 C176.5 200.9 176.33 201.57 176.15 202.25 C175.61 204.29 175.05 206.33 174.49 208.36 C174.31 209.03 174.13 209.69 173.94 210.38 C170.85 221.78 170.85 221.78 168.49 226.36 C168.18 227.52 167.87 228.67 167.55 229.86 C166.53 233.22 165.55 234.65 163.49 237.36 C162.96 238.68 162.46 240.02 161.99 241.36 C160.88 244.51 159.57 246.74 157.49 249.36 C157.18 250.19 156.87 251.01 156.55 251.86 C155.33 254.75 153.69 256.16 151.49 258.36 C150.81 260.02 150.14 261.69 149.49 263.36 C147.8 265.68 147.8 265.68 145.49 268.36 C145.01 268.93 144.52 269.49 144.03 270.07 C139.58 275.23 134.92 280.11 130.11 284.93 C129.41 285.64 128.71 286.36 127.98 287.1 C121.41 293.68 114.33 299.36 106.49 304.36 C105.87 304.77 105.26 305.19 104.62 305.61 C101.19 307.85 98.01 309.63 94.11 310.93 C90.42 311.91 90.42 311.91 89.54 314.39 C88.49 316.36 88.49 316.36 86.39 317.05 C84.79 317.26 83.19 317.47 81.58 317.68 C79.29 318.15 79.29 318.15 78.45 320.4 C78.13 321.05 77.82 321.7 77.49 322.36 C75.47 322.59 73.46 322.81 71.44 322.95 C68.38 323.6 67.34 325.97 65.49 328.36 C63.16 328.7 60.82 329.04 58.49 329.36 C56.8 331.01 55.13 332.68 53.49 334.36 C51.17 335.08 48.84 335.75 46.49 336.36 C45.49 337.36 44.49 338.36 43.49 339.36 C41.66 340.14 41.66 340.14 39.68 340.74 C35.43 342.21 32.77 344.33 29.49 347.36 C31.9 348.71 34.05 349.51 36.74 350.24 C40.32 351.31 43.28 352.7 46.57 354.42 C48.66 355.5 48.66 355.5 51.74 356.43 C54.49 357.36 54.49 357.36 56.49 358.93 C58.47 360.58 58.47 360.58 61.3 360.8 C64.56 361.38 66.57 362.53 69.36 364.25 C72.96 366.13 76.84 367.18 80.72 368.34 C83.46 369.35 85.22 370.57 87.49 372.36 C88.46 372.67 89.43 372.98 90.43 373.3 C93.8 374.47 95.75 376.11 98.49 378.36 C101.17 379.6 101.17 379.6 103.49 380.36 C103.49 381.02 103.49 381.68 103.49 382.36 C104.35 382.59 105.22 382.82 106.11 383.05 C110.12 384.61 112.29 386.53 115.49 389.36 C116.15 389.69 116.81 390.02 117.49 390.36 C117.49 391.02 117.49 391.68 117.49 392.36 C118.32 392.73 118.32 392.73 119.18 393.11 C121.91 394.59 124.16 396.3 126.49 398.36 C126.49 399.02 126.49 399.68 126.49 400.36 C127.32 400.7 127.32 400.7 128.18 401.05 C133.42 404.03 136.93 409.05 140.49 413.8 C142.98 417.11 145.49 420.39 148.16 423.55 C151.54 427.63 153.94 431.56 155.49 436.68 C155.82 437.56 156.15 438.45 156.49 439.36 C157.12 439.63 157.74 439.9 158.39 440.18 C161.4 441.88 161.84 443.87 163.05 447.05 C163.47 448.13 163.89 449.22 164.33 450.33 C164.71 451.33 165.09 452.33 165.49 453.36 C166.02 454.6 166.56 455.83 167.11 457.05 C168.51 460.41 169.65 463.78 170.74 467.25 C171.44 469.38 171.44 469.38 172.51 471.35 C173.57 473.52 174.07 475.5 174.55 477.86 C175.24 481.17 175.24 481.17 176.05 484.46 C176.49 486.36 176.49 486.36 176.49 489.36 C177.15 490.35 177.81 491.34 178.49 492.36 C180.03 501.1 179.64 510.23 179.62 519.08 C179.61 521.29 179.62 523.51 179.62 525.72 C179.64 549.64 179.64 549.64 176.49 554.36 C175.89 556.55 175.89 556.55 175.49 558.96 C175.32 559.84 175.16 560.73 174.99 561.64 C174.65 563.5 174.32 565.36 173.99 567.22 C173.82 568.11 173.66 568.99 173.49 569.9 C173.34 570.71 173.2 571.52 173.05 572.35 C172.49 574.36 172.49 574.36 170.49 576.36 C169.72 579.85 169.15 583.36 168.56 586.88 C167.31 590.94 165.56 592.52 162.49 595.36 C161.78 597.68 161.11 600.02 160.49 602.36 C159.5 603.02 158.51 603.68 157.49 604.36 C156.46 606.68 155.46 609.02 154.49 611.36 C153.52 612.72 152.52 614.06 151.49 615.36 C151.18 616.02 150.87 616.68 150.55 617.36 C149.24 619.84 147.47 621.38 145.49 623.36 C144.89 624.28 144.29 625.19 143.67 626.14 C135.99 637.48 124.88 647.89 113.49 655.36 C112.71 656.17 112.71 656.17 111.93 656.99 C110.02 658.81 107.92 659.39 105.49 660.36 C104.78 661.11 104.78 661.11 104.05 661.86 C102.49 663.36 102.49 663.36 99.43 664.3 C98.46 664.65 97.49 665 96.49 665.36 C96.19 666.02 95.89 666.69 95.58 667.37 C94.49 669.36 94.49 669.36 92.43 670.05 C91.25 670.21 91.25 670.21 90.05 670.36 C85.89 671.1 84.93 671.92 82.49 675.36 C80.15 675.7 77.82 676.03 75.49 676.36 C74.81 677.32 74.81 677.32 74.11 678.3 C72.1 680.86 71.13 680.8 67.99 681.36 C64.39 681.9 64.39 681.9 61.86 684.36 C61.41 685.02 60.96 685.68 60.49 686.36 C58.16 687.04 55.82 687.71 53.49 688.36 C52.83 689.02 52.17 689.68 51.49 690.36 C48.81 693.05 46.1 693.38 42.49 694.36 C41.48 695.36 40.48 696.36 39.49 697.36 C37.61 698.32 37.61 698.32 35.49 699.18 C28.86 701.99 22.48 705.37 16.49 709.36 C15.48 709.67 14.47 709.98 13.43 710.3 C10.21 711.13 10.21 711.13 8.49 714.36 C6.22 715.28 3.94 715.88 1.58 716.52 C-0.86 717.27 -0.86 717.27 -2.51 720.36 C-4.81 721.01 -7.06 721.31 -9.42 721.64 C-12.19 722.6 -12.27 723.82 -13.51 726.36 C-15.53 726.59 -17.54 726.81 -19.56 726.95 C-22.62 727.6 -23.66 729.97 -25.51 732.36 C-27.84 732.73 -30.17 733.07 -32.51 733.36 C-33.19 734.29 -33.19 734.29 -33.89 735.24 C-36.18 738.24 -38.79 738.6 -42.36 739.55 C-44.76 740.46 -45.75 741.55 -47.51 743.36 C-49.41 744.21 -49.41 744.21 -51.45 744.86 C-54.64 745.98 -56.83 747.29 -59.51 749.36 C-61.84 750.38 -64.17 751.38 -66.51 752.36 C-68.19 753.35 -69.86 754.34 -71.51 755.36 C-72.58 755.88 -73.66 756.39 -74.76 756.93 C-77.61 758.07 -77.61 758.07 -78.51 760.36 C-79.58 760.65 -80.66 760.94 -81.76 761.24 C-85.51 762.11 -85.51 762.11 -88.01 764.36 C-91.03 766.77 -93.83 767.32 -97.51 768.36 C-98.17 769.35 -98.83 770.34 -99.51 771.36 C-101.78 772.28 -104.06 772.88 -106.42 773.52 C-108.86 774.27 -108.86 774.27 -110.51 777.36 C-112.68 777.88 -112.68 777.88 -115.14 778.05 C-115.95 778.12 -116.77 778.18 -117.61 778.25 C-118.55 778.31 -118.55 778.31 -119.51 778.36 C-120.17 780.01 -120.83 781.66 -121.51 783.36 C-122.45 783.4 -122.45 783.4 -123.41 783.44 C-124.23 783.5 -125.04 783.55 -125.89 783.61 C-126.7 783.66 -127.51 783.71 -128.35 783.75 C-129.06 783.96 -129.78 784.16 -130.51 784.36 C-131.2 785.69 -131.86 787.02 -132.51 788.36 C-134.57 789.3 -134.57 789.3 -136.95 789.93 C-140.42 790.85 -142.05 791.78 -144.51 794.36 C-146.84 795.38 -149.17 796.38 -151.51 797.36 C-152.15 797.86 -152.79 798.35 -153.45 798.86 C-156.02 800.73 -158.65 801.56 -161.62 802.61 C-163.91 803.52 -165.59 804.84 -167.51 806.36 C-169.18 807.03 -170.85 807.7 -172.51 808.36 C-173.13 808.84 -173.75 809.31 -174.39 809.8 C-176.51 811.36 -176.51 811.36 -180.07 812.86 C-183.41 814.06 -183.41 814.06 -185.01 815.93 C-186.51 817.36 -186.51 817.36 -190.01 818.3 C-193.56 818.98 -193.56 818.98 -194.95 821.43 C-196.51 823.36 -196.51 823.36 -198.36 823.7 C-199.42 823.78 -199.42 823.78 -200.51 823.86 C-202.63 823.99 -202.63 823.99 -204.51 824.36 C-205.53 825.69 -206.52 827.02 -207.51 828.36 C-209.8 829.26 -212.08 829.93 -214.45 830.55 C-216.87 831.28 -216.87 831.28 -218.51 834.36 C-220.52 834.85 -222.54 835.33 -224.56 835.77 C-227.27 836.6 -228.57 838.35 -230.51 840.36 C-232.84 841.06 -235.17 841.72 -237.51 842.36 C-238.51 843.36 -239.51 844.36 -240.51 845.36 C-242.6 846.43 -242.6 846.43 -244.89 847.36 C-248.29 848.81 -251.37 850.41 -254.51 852.36 C-256.5 853.38 -258.5 854.38 -260.51 855.36 C-267.03 858.53 -267.03 858.53 -273.32 862.11 C-275.72 863.48 -277.79 863.97 -280.51 864.36 C-280.84 865.35 -281.17 866.34 -281.51 867.36 C-283.44 868.13 -285.37 868.88 -287.34 869.55 C-289.95 870.53 -292.2 871.95 -294.58 873.39 C-297.7 874.96 -301.01 875.78 -304.38 876.65 C-306.69 877.25 -306.69 877.25 -308.51 879.36 C-310.42 880.02 -310.42 880.02 -312.73 880.58 C-313.58 880.79 -314.43 881 -315.31 881.22 C-316.2 881.43 -317.09 881.64 -318.01 881.86 C-318.87 882.08 -319.73 882.29 -320.62 882.51 C-330.23 884.85 -339.65 886.65 -349.51 887.49 C-350.43 887.57 -351.35 887.66 -352.3 887.75 C-371.53 889.46 -392.36 888.21 -410.51 881.36 C-412.28 880.83 -414.05 880.31 -415.82 879.8 C-420.14 878.51 -424.32 877.01 -428.51 875.36 C-429.39 875.03 -430.26 874.7 -431.16 874.36 C-432.51 873.83 -432.51 873.83 -433.89 873.3 C-434.72 872.98 -435.55 872.66 -436.41 872.33 C-438.51 871.36 -438.51 871.36 -440.51 869.36 C-441.97 868.78 -441.97 868.78 -443.45 868.18 C-456.16 862.93 -467.06 853.05 -477.51 844.36 C-478.51 843.57 -478.51 843.57 -479.54 842.76 C-484.29 838.85 -488.29 834.37 -492.32 829.74 C-492.89 829.09 -493.45 828.45 -494.03 827.78 C-501.51 819.06 -501.51 819.06 -501.51 815.36 C-502.17 815.36 -502.83 815.36 -503.51 815.36 C-504.16 813.97 -504.16 813.97 -504.82 812.55 C-506.24 809.47 -506.24 809.47 -508.02 807.91 C-510.18 805.67 -510.74 803.22 -511.67 800.3 C-512.4 798.28 -512.4 798.28 -514.06 796.88 C-516.62 794.2 -516.22 790.94 -516.51 787.36 C-517.17 787.36 -517.83 787.36 -518.51 787.36 C-518.51 786.37 -518.51 785.38 -518.51 784.36 C-519.17 784.36 -519.83 784.36 -520.51 784.36 C-523.96 774.95 -523.96 774.95 -523.51 770.36 C-524.17 770.03 -524.83 769.7 -525.51 769.36 C-526.9 764.12 -527.65 758.71 -528.51 753.36 C-528.65 752.5 -528.79 751.63 -528.94 750.74 C-532.13 730.77 -531.88 712.85 -528.88 692.85 C-528.57 690.77 -528.29 688.68 -528.01 686.59 C-527.21 680.98 -525.84 676.14 -523.59 670.95 C-521.96 667.03 -520.72 662.98 -519.44 658.93 C-518.51 656.36 -518.51 656.36 -516.51 653.36 C-516.18 652.04 -515.89 650.71 -515.64 649.36 C-514.77 645.56 -513.67 644.64 -510.51 642.36 C-509.83 640.03 -509.17 637.7 -508.51 635.36 C-506.57 633.24 -506.57 633.24 -504.51 631.36 C-503.48 629.72 -502.48 628.05 -501.51 626.36 C-497.03 619.4 -492.39 613.22 -486.51 607.36 C-485.58 606.41 -484.65 605.45 -483.71 604.5 C-475.5 596.11 -467.04 588.64 -456.76 582.8 C-454.25 581.41 -454.25 581.41 -452.51 578.36 C-450.64 577.99 -450.64 577.99 -448.51 577.93 C-446.38 577.78 -446.38 577.78 -444.51 577.36 C-443.81 576.05 -443.15 574.71 -442.51 573.36 C-440.54 572.45 -438.57 571.8 -436.48 571.17 C-434.24 570.25 -433.2 569.08 -431.51 567.36 C-429.6 566.37 -429.6 566.37 -427.45 565.49 C-418.51 561.68 -410.02 557.05 -401.51 552.36 C-384.81 543.19 -384.81 543.19 -380.51 542.36 C-380.84 541.37 -381.17 540.38 -381.51 539.36 C-384.06 538.31 -384.06 538.31 -387.51 537.36 C-393.36 535.35 -399.07 533.31 -404.51 530.36 C-404.51 529.7 -404.51 529.04 -404.51 528.36 C-405.06 528.27 -405.6 528.17 -406.16 528.07 C-411.23 527.06 -415.61 525.56 -420.27 523.36 C-422.44 522.4 -424.56 521.68 -426.82 520.99 C-433.22 518.94 -440.72 516.15 -445.51 511.36 C-447.5 510.66 -449.5 509.99 -451.51 509.36 C-452.17 509.03 -452.83 508.7 -453.51 508.36 C-453.51 507.7 -453.51 507.04 -453.51 506.36 C-454.04 506.13 -454.56 505.89 -455.1 505.65 C-458.3 503.94 -461.2 501.86 -464.14 499.74 C-464.75 499.3 -465.37 498.85 -466 498.4 C-480.55 487.88 -480.55 487.88 -484.51 483.36 C-484.51 482.7 -484.51 482.04 -484.51 481.36 C-485.17 481.36 -485.83 481.36 -486.51 481.36 C-488.17 479.75 -488.17 479.75 -490.01 477.61 C-490.62 476.92 -491.23 476.22 -491.86 475.5 C-493.39 473.52 -494.48 471.64 -495.51 469.36 C-496.17 469.36 -496.83 469.36 -497.51 469.36 C-498.89 467.32 -500.15 465.3 -501.39 463.18 C-503.33 459.86 -505.26 456.67 -507.67 453.67 C-509.3 451.62 -510.21 450.1 -511.07 447.68 C-512.25 444.15 -512.25 444.15 -515.51 442.36 C-515.66 441.31 -515.8 440.26 -515.95 439.18 C-516.5 435.46 -517.58 433.48 -519.45 430.32 C-521.27 426.97 -522.38 423.43 -523.51 419.8 C-523.89 418.58 -523.89 418.58 -524.28 417.33 C-527.23 407.51 -528.9 397.48 -530.51 387.36 C-530.74 386.01 -530.97 384.67 -531.2 383.32 C-533.21 370.75 -532.6 358.91 -530.7 346.36 C-530.53 345.2 -530.37 344.03 -530.2 342.82 C-528.62 332.08 -526.71 321.6 -522.42 311.59 C-521.58 309.53 -520.95 307.52 -520.39 305.36 C-519.51 302.36 -519.51 302.36 -517.51 300.36 C-517 298.99 -516.55 297.59 -516.14 296.18 C-514.75 291.8 -512.92 288.27 -510.51 284.36 C-509.98 283.44 -509.44 282.51 -508.89 281.55 C-507.51 279.36 -507.51 279.36 -505.51 277.36 C-505.06 276.25 -504.6 275.14 -504.14 273.99 C-502.53 270.4 -501.27 269.03 -498.51 266.36 C-497.03 264.61 -495.58 262.84 -494.14 261.05 C-493.35 260.08 -492.56 259.11 -491.74 258.11 C-490.45 256.52 -489.16 254.93 -487.88 253.34 C-484.15 248.84 -479.99 245.09 -475.51 241.36 C-474.65 240.64 -473.79 239.91 -472.91 239.17 C-457.81 226.61 -457.81 226.61 -451.85 224.36 C-449.19 223.48 -449.19 223.48 -447.51 220.36 C-445.67 219.77 -445.67 219.77 -443.57 219.43 C-440.26 218.8 -440.26 218.8 -438.01 216.36 C-435.9 213.55 -433.76 213.6 -430.43 212.93 C-427.73 212.13 -426.44 210.36 -424.51 208.36 C-422.19 207.67 -419.85 207 -417.51 206.36 C-416.5 205.38 -415.5 204.38 -414.51 203.36 C-412.72 202.35 -412.72 202.35 -410.75 201.46 C-410.02 201.13 -409.29 200.79 -408.55 200.45 C-407.79 200.11 -407.04 199.77 -406.26 199.43 C-400.84 196.97 -395.64 194.39 -390.51 191.36 C-389.15 190.56 -389.15 190.56 -387.76 189.74 C-385.99 188.65 -384.24 187.52 -382.51 186.36 C-380.75 185.93 -380.75 185.93 -378.95 185.49 C-377.81 185.12 -376.68 184.75 -375.51 184.36 C-375.05 183.37 -375.05 183.37 -374.58 182.36 C-373.51 180.36 -373.51 180.36 -371.38 179.64 C-370.18 179.47 -370.18 179.47 -368.95 179.3 C-366.56 179.02 -366.56 179.02 -364.51 178.36 C-364.18 177.37 -363.85 176.38 -363.51 175.36 C-361.55 174.77 -361.55 174.77 -359.14 174.43 C-355.49 173.89 -355.49 173.89 -353.01 171.36 C-351.1 168.82 -350.08 168.91 -347.01 168.36 C-343.42 167.83 -343.42 167.83 -340.89 165.36 C-340.43 164.7 -339.98 164.04 -339.51 163.36 C-337.18 162.69 -334.85 162.02 -332.51 161.36 C-331.85 160.7 -331.19 160.04 -330.51 159.36 C-327.83 156.68 -325.12 156.35 -321.51 155.36 C-320.51 154.37 -319.51 153.37 -318.51 152.36 C-316.64 151.41 -316.64 151.41 -314.51 150.55 C-309.93 148.61 -305.64 146.3 -301.3 143.88 C-297.76 141.95 -294.14 140.19 -290.51 138.44 C-288.36 137.41 -288.36 137.41 -286.51 135.36 C-284.81 134.93 -284.81 134.93 -283.07 134.49 C-279.46 133.76 -279.46 133.76 -278.14 131.3 C-276.06 128.82 -274.98 128.95 -271.82 128.61 C-270.39 128.51 -268.95 128.42 -267.51 128.36 C-267.18 126.71 -266.85 125.06 -266.51 123.36 C-265.89 123.34 -265.26 123.31 -264.61 123.29 C-263.8 123.23 -262.98 123.17 -262.14 123.11 C-261.32 123.07 -260.51 123.02 -259.68 122.97 C-258.96 122.77 -258.25 122.57 -257.51 122.36 C-256.83 121.04 -256.17 119.7 -255.51 118.36 C-253.45 117.68 -253.45 117.68 -251.07 117.36 C-246.87 116.61 -246.02 115.81 -243.51 112.36 C-241.26 111.47 -239.01 110.8 -236.67 110.17 C-234.27 109.27 -233.28 108.17 -231.51 106.36 C-229.52 105.5 -227.52 104.87 -225.45 104.21 C-223.26 103.26 -222.15 102.06 -220.51 100.36 C-218.9 99.66 -217.29 98.96 -215.66 98.3 C-212.1 96.74 -208.75 94.8 -205.36 92.91 C-201.84 91 -198.26 89.23 -194.66 87.46 C-192.36 86.33 -192.36 86.33 -189.7 84.61 C-187.51 83.36 -187.51 83.36 -184.82 82.93 C-184.06 82.74 -183.3 82.55 -182.51 82.36 C-182.23 81.71 -181.94 81.06 -181.64 80.39 C-180.51 78.36 -180.51 78.36 -178.45 77.68 C-177.67 77.57 -176.88 77.47 -176.07 77.36 C-172.43 76.87 -172.43 76.87 -170.01 74.3 C-168.51 72.36 -168.51 72.36 -166.34 71.88 C-164.06 71.64 -161.8 71.46 -159.51 71.36 C-159.18 70.04 -158.85 68.72 -158.51 67.36 C-157.81 67.27 -157.11 67.17 -156.39 67.07 C-155.48 66.92 -154.57 66.77 -153.64 66.61 C-152.28 66.4 -152.28 66.4 -150.89 66.19 C-148.36 65.61 -148.36 65.61 -147.44 63.38 C-147.13 62.72 -146.83 62.05 -146.51 61.36 C-144.67 60.42 -144.67 60.42 -142.57 59.8 C-139.35 58.83 -137.85 57.74 -135.51 55.36 C-133.64 54.41 -133.64 54.41 -131.51 53.55 C-126.92 51.6 -122.63 49.29 -118.27 46.87 C-113.17 44.08 -107.94 41.53 -102.7 39.01 C-101.79 38.57 -100.88 38.13 -99.95 37.68 C-98.71 37.08 -98.71 37.08 -97.45 36.48 C-95.36 35.51 -95.36 35.51 -94.51 33.36 C-92.55 32.65 -92.55 32.65 -90.14 31.99 C-86.48 30.95 -86.48 30.95 -83.95 28.24 C-82.51 26.36 -82.51 26.36 -80.64 26.03 C-79.91 25.97 -79.19 25.92 -78.45 25.86 C-76.5 25.62 -76.5 25.62 -74.51 25.36 C-74.03 24.39 -74.03 24.39 -73.54 23.39 C-72.51 21.36 -72.51 21.36 -70.45 20.68 C-69.67 20.57 -68.88 20.47 -68.07 20.36 C-63.89 19.62 -62.99 18.81 -60.51 15.36 C-58.57 14.84 -56.63 14.32 -54.66 13.92 C-52.49 13.36 -50.87 12.58 -48.92 11.49 C-44.04 8.98 -38.99 7.66 -33.7 6.3 C-32.78 6.06 -31.86 5.81 -30.91 5.56 C-29.16 5.1 -27.41 4.64 -25.65 4.19 C-23.8 3.7 -21.95 3.19 -20.12 2.62 C-13.28 0.56 -7.12 -0.07 0 0 Z M-8.76 44.18 C-9.49 44.25 -10.23 44.32 -10.98 44.39 C-15.1 44.88 -17.31 45.83 -20.51 48.36 C-23.83 49.26 -27.15 49.88 -30.52 50.52 C-33.62 51.39 -34.41 52.09 -36.51 54.36 C-38.56 54.98 -40.56 55.3 -42.67 55.64 C-44.71 56.2 -44.71 56.2 -45.48 58.36 C-46.51 60.36 -46.51 60.36 -48.57 61.09 C-49.75 61.25 -49.75 61.25 -50.95 61.43 C-54.63 61.97 -55.98 62.7 -58.51 65.36 C-60.41 66.21 -60.41 66.21 -62.45 66.86 C-65.65 67.98 -67.83 69.27 -70.51 71.36 C-73.85 73.17 -77.28 74.78 -80.7 76.4 C-81.4 76.74 -82.1 77.08 -82.82 77.43 C-83.46 77.73 -84.1 78.03 -84.75 78.34 C-86.59 79.3 -86.59 79.3 -87.99 80.93 C-89.85 82.68 -91.07 82.86 -93.57 83.24 C-95.68 83.63 -95.68 83.63 -97.51 84.36 C-99.11 86.85 -99.11 86.85 -99.51 89.36 C-100.77 89.28 -102.03 89.2 -103.32 89.11 C-105.52 89.06 -105.52 89.06 -107.51 89.36 C-108.55 90.67 -109.54 92.01 -110.51 93.36 C-112.8 94.26 -115.08 94.93 -117.45 95.55 C-119.87 96.28 -119.87 96.28 -121.51 99.36 C-123.57 99.95 -123.57 99.95 -125.95 100.3 C-130.14 101.1 -131.02 101.93 -133.51 105.36 C-135.76 106.26 -138.02 106.93 -140.36 107.55 C-142.75 108.45 -143.75 109.56 -145.51 111.36 C-146.71 111.69 -147.9 112.02 -149.14 112.36 C-150.25 112.69 -151.36 113.02 -152.51 113.36 C-152.84 114.35 -153.17 115.34 -153.51 116.36 C-155.44 117.21 -155.44 117.21 -157.82 117.86 C-161.34 118.93 -163.63 120.06 -166.51 122.36 C-168.84 123.38 -171.17 124.38 -173.51 125.36 C-175.19 126.35 -176.86 127.34 -178.51 128.36 C-179.56 128.88 -180.62 129.39 -181.7 129.93 C-184.56 131.21 -184.56 131.21 -186.51 133.36 C-188.21 133.8 -188.21 133.8 -189.95 134.24 C-193.54 134.97 -193.54 134.97 -194.89 137.36 C-197.24 140.27 -199.85 140.2 -203.45 140.68 C-205.71 141.16 -205.71 141.16 -206.54 143.39 C-206.86 144.04 -207.18 144.69 -207.51 145.36 C-209.55 145.62 -211.59 145.87 -213.64 146.03 C-216.36 146.52 -216.91 148.18 -218.51 150.36 C-220.8 151.26 -223.08 151.93 -225.45 152.55 C-227.87 153.28 -227.87 153.28 -229.51 156.36 C-231.52 156.85 -233.54 157.33 -235.56 157.77 C-238.27 158.6 -239.57 160.35 -241.51 162.36 C-243.84 163.04 -246.18 163.71 -248.51 164.36 C-250.2 165.67 -251.87 167.01 -253.51 168.36 C-255.15 169.08 -256.78 169.8 -258.44 170.46 C-262.96 172.43 -267.21 174.97 -271.51 177.36 C-273.57 178.49 -275.64 179.61 -277.7 180.74 C-278.62 181.24 -279.54 181.74 -280.49 182.26 C-281.16 182.63 -281.83 182.99 -282.51 183.36 C-282.51 184.02 -282.51 184.68 -282.51 185.36 C-283.77 185.45 -285.03 185.53 -286.32 185.61 C-288.53 185.83 -288.53 185.83 -290.51 186.36 C-291.53 187.68 -292.53 189.02 -293.51 190.36 C-295.36 190.93 -295.36 190.93 -297.51 191.36 C-301.37 192.14 -302.17 193.21 -304.51 196.36 C-306.84 196.74 -309.17 197.07 -311.51 197.36 C-313.48 198.66 -313.48 198.66 -314.51 200.36 C-314.51 201.02 -314.51 201.68 -314.51 202.36 C-315.13 202.39 -315.74 202.41 -316.38 202.44 C-318.81 202.61 -321.12 202.84 -323.51 203.36 C-324.55 204.66 -325.55 206 -326.51 207.36 C-328.8 208.26 -331.08 208.93 -333.45 209.55 C-335.87 210.28 -335.87 210.28 -337.51 213.36 C-338.6 213.67 -339.7 213.98 -340.82 214.3 C-344.72 215.42 -346.43 216.82 -349.51 219.36 C-351.14 220.08 -352.78 220.8 -354.44 221.46 C-357.97 223 -361.29 224.94 -364.66 226.81 C-368.18 228.73 -371.77 230.5 -375.36 232.27 C-377.05 233.13 -378.7 234.07 -380.32 235.05 C-382.51 236.36 -382.51 236.36 -385.2 237.36 C-387.83 238.25 -387.83 238.25 -389.51 241.36 C-391.61 241.92 -391.61 241.92 -394.01 242.24 C-396.41 242.63 -396.41 242.63 -398.51 243.36 C-400.19 245.83 -400.19 245.83 -400.51 248.36 C-401.56 248.26 -402.62 248.16 -403.7 248.05 C-408.5 248.44 -409.24 250.01 -412.51 253.36 C-414.83 253.76 -417.17 254.1 -419.51 254.36 C-421.48 255.66 -421.48 255.66 -422.51 257.36 C-422.51 258.02 -422.51 258.68 -422.51 259.36 C-423.54 259.43 -424.57 259.49 -425.64 259.55 C-429.38 260.34 -430.96 261.16 -433.71 263.71 C-436.06 265.87 -438.53 267.85 -441.01 269.86 C-441.96 270.64 -442.91 271.42 -443.89 272.22 C-445.39 273.44 -446.88 274.66 -448.38 275.88 C-455.69 281.87 -462.32 288.82 -466.51 297.36 C-467.01 297.82 -467.5 298.27 -468.01 298.74 C-469.76 300.4 -469.76 300.4 -470.45 303.36 C-471.51 306.36 -471.51 306.36 -473.57 307.74 C-475.68 309.15 -475.68 309.15 -475.85 311.25 C-475.9 311.97 -475.96 312.69 -476.01 313.43 C-476.18 314.73 -476.34 316.02 -476.51 317.36 C-477.16 317.68 -477.81 318 -478.48 318.32 C-480.71 319.17 -480.71 319.17 -481.23 321.43 C-481.35 322.25 -481.46 323.08 -481.57 323.93 C-482.26 328.14 -483.27 331.96 -484.73 335.96 C-487.23 343.65 -487.8 350.3 -487.7 358.36 C-487.69 359.47 -487.68 360.57 -487.68 361.71 C-487.59 370.29 -487.22 378.81 -486.51 387.36 C-486.45 388.36 -486.39 389.35 -486.33 390.38 C-485.97 395.34 -485.2 398.12 -482.51 402.36 C-481.99 404.12 -481.52 405.9 -481.07 407.68 C-479.78 412.68 -478.01 416.86 -475.51 421.36 C-475.05 422.25 -474.58 423.14 -474.1 424.05 C-470.54 430.77 -466.93 436.97 -461.51 442.36 C-460.68 443.48 -460.68 443.48 -459.82 444.61 C-457.26 447.67 -454.44 450.13 -451.41 452.71 C-449.51 454.36 -449.51 454.36 -447.14 456.8 C-445.65 458.59 -445.65 458.59 -443.51 458.36 C-443.51 459.02 -443.51 459.68 -443.51 460.36 C-435.09 469.03 -416.09 481.07 -403.75 481.45 C-403.01 481.42 -402.27 481.39 -401.51 481.36 C-401.51 482.02 -401.51 482.68 -401.51 483.36 C-397.11 487.01 -394.18 487.82 -388.51 487.36 C-388.51 488.02 -388.51 488.68 -388.51 489.36 C-384.9 491.36 -381.4 492.75 -377.45 493.86 C-373.7 494.94 -370.82 496.27 -367.51 498.36 C-365.48 499.17 -363.44 499.91 -361.38 500.62 C-359.51 501.36 -359.51 501.36 -356.51 503.36 C-355.05 503.84 -353.56 504.28 -352.07 504.68 C-346.85 506.17 -341.95 508.2 -336.98 510.38 C-334.65 511.49 -334.65 511.49 -332.51 511.36 C-332.84 529.51 -333.17 547.66 -333.51 566.36 C-335.82 567.35 -338.13 568.34 -340.51 569.36 C-342.19 570.35 -343.86 571.34 -345.51 572.36 C-347.51 573.36 -349.51 574.36 -351.51 575.36 C-353.26 576.32 -355.01 577.28 -356.76 578.24 C-361.28 580.73 -365.86 583.05 -370.52 585.29 C-372.66 586.32 -372.66 586.32 -374.51 588.36 C-376.53 589.17 -378.57 589.82 -380.64 590.48 C-382.86 591.33 -382.86 591.33 -384.51 594.36 C-386.35 594.95 -386.35 594.95 -388.45 595.3 C-391.76 595.91 -391.76 595.91 -393.95 598.36 C-396.54 601.68 -400.51 601.73 -404.51 602.36 C-404.84 603.68 -405.17 605 -405.51 606.36 C-406.13 606.39 -406.74 606.41 -407.38 606.44 C-409.81 606.61 -412.12 606.84 -414.51 607.36 C-415.55 608.66 -416.55 610 -417.51 611.36 C-419.76 612.26 -422.01 612.93 -424.36 613.55 C-426.75 614.45 -427.8 615.5 -429.51 617.36 C-430.38 617.86 -431.24 618.35 -432.14 618.86 C-434.81 620.2 -434.81 620.2 -435.51 623.36 C-436.36 623.61 -437.2 623.86 -438.07 624.11 C-442.75 625.81 -446.14 628.73 -449.51 632.36 C-449.51 633.02 -449.51 633.68 -449.51 634.36 C-450.1 634.62 -450.7 634.88 -451.31 635.14 C-453.69 636.46 -455.02 637.79 -456.76 639.86 C-457.28 640.47 -457.8 641.08 -458.34 641.71 C-459.7 643.3 -459.7 643.3 -459.51 645.36 C-460.5 645.69 -461.49 646.02 -462.51 646.36 C-463.53 648.11 -464.54 649.86 -465.45 651.67 C-466.51 653.36 -466.51 653.36 -469.51 655.36 C-470.28 657.05 -471.05 658.73 -471.73 660.46 C-472.95 663.44 -474.51 666.26 -476.01 669.11 C-478.72 674.36 -480.63 679.48 -481.91 685.25 C-482.51 687.36 -482.51 687.36 -484.51 689.36 C-486.98 699.5 -486.82 710.06 -486.77 720.42 C-486.76 722.99 -486.77 725.56 -486.79 728.13 C-486.8 743.6 -485.96 760.45 -476.51 773.36 C-476.02 774.88 -476.02 774.88 -475.51 776.43 C-474.68 779.4 -474.68 779.4 -472.76 781.55 C-470.64 784.2 -469.25 786.67 -467.7 789.68 C-454.38 814.67 -424.31 831.7 -398.51 840.36 C-392.35 842.19 -386.94 843.39 -380.51 843.36 C-379.85 843.69 -379.19 844.02 -378.51 844.36 C-374.02 844.61 -369.51 844.55 -365.01 844.55 C-363.77 844.56 -362.53 844.58 -361.25 844.59 C-354.05 844.6 -347.49 844.08 -340.51 842.36 C-339.05 842.05 -337.59 841.74 -336.13 841.43 C-328.53 839.74 -321.46 837.97 -314.51 834.36 C-312.79 833.52 -312.79 833.52 -311.04 832.66 C-305.75 830.06 -300.55 827.43 -295.51 824.36 C-293.51 823.36 -291.51 822.36 -289.51 821.36 C-288.69 820.85 -287.86 820.33 -287.01 819.8 C-284.51 818.36 -284.51 818.36 -281.39 817.43 C-278.41 816.64 -278.41 816.64 -277.07 814.3 C-274.74 811.41 -272.08 811.87 -268.51 811.36 C-268.06 810.72 -267.6 810.08 -267.14 809.43 C-264.49 806.07 -260.58 806.01 -256.51 805.36 C-256.18 804.04 -255.85 802.72 -255.51 801.36 C-254.84 801.27 -254.16 801.17 -253.46 801.07 C-248.11 800.17 -245.18 799.55 -241.51 795.36 C-239.52 794.67 -237.52 794 -235.51 793.36 C-235.04 792.89 -234.57 792.41 -234.08 791.92 C-232.3 790.16 -230.82 789.48 -228.51 788.55 C-223.92 786.6 -219.62 784.28 -215.27 781.87 C-212.71 780.47 -210.13 779.15 -207.51 777.86 C-197.89 773.52 -197.89 773.52 -189.51 767.36 C-187.64 766.87 -187.64 766.87 -185.51 766.49 C-183.36 766.05 -183.36 766.05 -181.51 765.36 C-181.02 764.34 -181.02 764.34 -180.51 763.3 C-180.18 762.66 -179.85 762.02 -179.51 761.36 C-176.82 760.68 -174.31 760.54 -171.51 760.36 C-170.85 758.71 -170.19 757.06 -169.51 755.36 C-168.9 755.34 -168.28 755.31 -167.65 755.29 C-165.21 755.11 -162.9 754.89 -160.51 754.36 C-159.47 753.06 -158.47 751.72 -157.51 750.36 C-155.26 749.46 -153.01 748.8 -150.67 748.17 C-148.27 747.27 -147.27 746.17 -145.51 744.36 C-144.4 744.05 -143.28 743.74 -142.14 743.43 C-138.29 742.3 -136.56 740.88 -133.51 738.36 C-131.19 737.33 -128.86 736.33 -126.51 735.36 C-124.84 734.37 -123.18 733.37 -121.51 732.36 C-118.8 730.87 -116.06 729.43 -113.32 727.99 C-112.57 727.59 -111.82 727.2 -111.05 726.79 C-105.58 723.9 -100.07 721.08 -94.51 718.36 C-94.51 717.7 -94.51 717.04 -94.51 716.36 C-92.66 716.27 -92.66 716.27 -90.76 716.18 C-87.08 715.75 -87.08 715.75 -84.57 712.93 C-81.85 709.54 -79.62 709.48 -75.44 708.92 C-74.8 708.73 -74.17 708.55 -73.51 708.36 C-73.18 707.37 -72.85 706.38 -72.51 705.36 C-70.52 704.81 -70.52 704.81 -68.07 704.49 C-65.65 704.1 -65.65 704.1 -63.51 703.36 C-61.84 700.89 -61.84 700.89 -61.51 698.36 C-60.9 698.34 -60.28 698.31 -59.65 698.29 C-57.21 698.11 -54.9 697.89 -52.51 697.36 C-51.47 696.06 -50.47 694.72 -49.51 693.36 C-47.26 692.46 -45.01 691.8 -42.67 691.17 C-40.27 690.27 -39.24 689.2 -37.51 687.36 C-35.89 686.66 -34.27 685.95 -32.64 685.29 C-29.2 683.79 -25.97 681.93 -22.69 680.11 C-19.04 678.1 -15.37 676.14 -11.7 674.18 C-11.08 673.84 -10.46 673.51 -9.81 673.17 C-3.83 669.97 2.17 667.02 8.44 664.43 C10.59 663.31 11.95 662.23 13.49 660.36 C13.49 659.7 13.49 659.04 13.49 658.36 C14.58 658.4 15.67 658.45 16.8 658.49 C20.58 658.68 20.58 658.68 23.49 656.36 C23.49 655.37 23.49 654.38 23.49 653.36 C24.1 653.34 24.72 653.31 25.35 653.29 C27.79 653.11 30.1 652.89 32.49 652.36 C33.53 651.06 34.53 649.72 35.49 648.36 C37.77 647.47 40.06 646.8 42.43 646.17 C44.84 645.45 44.84 645.45 46.49 642.36 C48.55 641.52 48.55 641.52 50.93 640.86 C54.39 639.9 56 638.91 58.49 636.36 C60.82 635.7 63.15 635.03 65.49 634.36 C66.5 633.38 67.5 632.38 68.49 631.36 C70.21 630.41 70.21 630.41 72.11 629.55 C90.57 620.54 106.38 604.39 117.49 587.36 C117.94 586.7 118.39 586.03 118.85 585.35 C134.43 561.62 140.51 529.26 135.11 501.49 C134.59 499.11 134.05 496.73 133.49 494.36 C133.31 493.43 133.13 492.49 132.95 491.53 C132.14 487.31 131.08 484.72 128.49 481.36 C128.09 479.55 127.69 477.74 127.29 475.93 C125.47 470.12 122.31 464.74 119.49 459.36 C118.83 459.36 118.17 459.36 117.49 459.36 C117.23 458.47 116.97 457.57 116.7 456.65 C112.38 444.95 99.02 433.14 89.49 425.36 C88.87 424.72 88.24 424.08 87.6 423.41 C78.36 414.45 64.44 408.65 52.49 404.36 C51.5 403.7 50.51 403.04 49.49 402.36 C48.09 401.84 46.67 401.37 45.24 400.93 C41.21 399.63 37.37 398.06 33.49 396.36 C31.65 395.67 29.8 394.98 27.96 394.3 C19.38 391.06 10.94 387.65 2.68 383.68 C-2.27 381.3 -7.14 379.34 -12.46 377.97 C-14.66 377.32 -16.53 376.52 -18.51 375.36 C-19.75 372.88 -19.63 371.23 -19.63 368.45 C-19.63 367.43 -19.63 366.41 -19.63 365.36 C-19.62 364.26 -19.61 363.15 -19.61 362.01 C-19.61 360.32 -19.61 360.32 -19.61 358.59 C-19.6 354.97 -19.59 351.36 -19.57 347.74 C-19.57 345.29 -19.56 342.84 -19.56 340.39 C-19.55 334.38 -19.53 328.37 -19.51 322.36 C-14.18 319.7 -8.85 317.03 -3.51 314.36 C-3.51 313.7 -3.51 313.04 -3.51 312.36 C-1.66 312.27 -1.66 312.27 0.24 312.18 C3.95 311.74 3.95 311.74 6.49 308.86 C8.77 306.01 9.28 305.96 12.74 305.55 C14.59 305.46 14.59 305.46 16.49 305.36 C17.15 303.71 17.81 302.06 18.49 300.36 C21.46 300.03 24.43 299.7 27.49 299.36 C28.15 297.71 28.81 296.06 29.49 294.36 C30.41 294.32 30.41 294.32 31.35 294.29 C33.79 294.11 36.1 293.89 38.49 293.36 C39.53 292.06 40.53 290.72 41.49 289.36 C43.74 288.46 45.99 287.8 48.33 287.17 C50.73 286.27 51.73 285.17 53.49 283.36 C54.6 283.05 55.72 282.74 56.86 282.43 C60.7 281.3 62.48 279.91 65.49 277.36 C68.13 275.95 70.81 274.67 73.54 273.43 C77.61 271.51 79.87 270.1 82.49 266.36 C83.23 266.1 83.97 265.83 84.73 265.55 C88.16 264.07 90.28 262.05 92.99 259.49 C95.64 256.99 98.25 254.55 101.11 252.29 C106.24 248.14 110.23 243.07 113.49 237.36 C114.05 236.87 114.6 236.37 115.18 235.86 C116.76 234.36 116.76 234.36 116.68 231.68 C116.58 230.53 116.58 230.53 116.49 229.36 C117.11 229.32 117.73 229.28 118.36 229.24 C120.81 228.52 120.81 228.52 121.74 225.55 C122.64 222.26 122.64 222.26 122.49 218.36 C123.45 217.9 123.45 217.9 124.43 217.43 C126.42 216.53 126.42 216.53 127.49 215.36 C128.02 213.12 128.45 210.86 128.89 208.59 C129.49 206.36 129.49 206.36 131.49 203.36 C133.7 196.8 133.72 190.22 133.49 183.36 C134.48 183.03 135.47 182.7 136.49 182.36 C136.3 181.58 136.12 180.8 135.93 179.99 C135.49 177.36 135.49 177.36 136.49 175.36 C136.61 172.5 136.68 169.67 136.68 166.8 C136.67 165.98 136.67 165.15 136.67 164.31 C136.63 159.56 136.35 155.22 135.06 150.64 C134.28 147.53 133.91 144.41 133.49 141.24 C132.32 132.34 132.32 132.34 128.49 124.36 C127.97 122.9 127.5 121.42 127.05 119.93 C125.95 116.49 124.68 114.23 122.49 111.36 C122.18 110.23 121.87 109.09 121.55 107.93 C120.43 104.17 119.02 102.29 116.49 99.36 C115.78 98.05 115.09 96.73 114.49 95.36 C113.83 95.36 113.17 95.36 112.49 95.36 C112.49 94.7 112.49 94.04 112.49 93.36 C111.83 93.36 111.17 93.36 110.49 93.36 C110.16 92.32 110.16 92.32 109.83 91.25 C108.14 87.62 105.72 84.99 102.99 82.11 C102.46 81.55 101.92 80.98 101.37 80.4 C92.3 70.8 92.3 70.8 81.49 63.36 C80.83 63.36 80.17 63.36 79.49 63.36 C79.16 62.37 78.83 61.38 78.49 60.36 C75.85 58.88 73.24 57.62 70.49 56.36 C69.32 55.79 68.14 55.21 66.94 54.62 C60.22 51.35 53.91 48.64 46.49 47.36 C46.16 47.03 45.83 46.7 45.49 46.36 C27.55 42.64 9.43 42.35 -8.76 44.18 Z " fill="#020202" transform="translate(793.51171875,177.63671875)"/>
<path d="M0 0 C1.65 0.33 3.3 0.66 5 1 C5.33 1.99 5.66 2.98 6 4 C7.91 4.62 7.91 4.62 10.19 4.88 C13.61 5.51 15.63 6.19 18.19 8.56 C21.27 11.23 23 11.71 27 12 C27 12.66 27 13.32 27 14 C29.53 15.42 31.72 16.19 34.56 16.94 C38.04 18.01 38.61 18.58 41 21 C42.72 21.9 42.72 21.9 44.69 22.62 C49.22 24.54 53.42 26.87 57.69 29.31 C63.99 32.92 70.37 36.25 76.91 39.39 C80.11 41.06 83.02 42.98 86 45 C86.83 45.33 87.65 45.66 88.5 46 C91 47 91 47 94 49.06 C96.79 51.13 96.79 51.13 99.62 51.5 C102 52 102 52 103.81 53.88 C106.41 56.4 108.69 57.14 112.1 58.19 C114.27 59.12 115.35 60.34 117 62 C118.11 62.31 119.23 62.62 120.38 62.94 C124.2 64.06 125.97 65.51 129 68 C131 68.68 133 69.35 135 70 C137.01 71.31 139.01 72.65 141 74 C142.66 74.67 144.33 75.34 146 76 C147.66 76.85 149.31 77.72 150.94 78.62 C151.89 79.15 152.84 79.67 153.82 80.21 C156.09 81.49 158.34 82.77 160.58 84.07 C161.19 84.42 161.8 84.77 162.43 85.13 C164.17 86.14 165.9 87.15 167.64 88.17 C171.02 90.01 174.45 91.5 178 93 C179.91 93.97 181.81 94.97 183.69 96 C184.6 96.5 185.51 96.99 186.45 97.5 C189 99 189 99 191.15 100.63 C193.04 102.18 193.04 102.18 195.88 102.94 C199.39 104.13 201.94 105.92 205 108 C206.18 108.46 206.18 108.46 207.38 108.94 C211.17 110.47 214.76 112.49 218 115 C218 115.66 218 116.32 218 117 C218.66 117 219.32 117 220 117 C220 117.66 220 118.32 220 119 C219.18 119.25 218.36 119.51 217.52 119.77 C216.44 120.11 215.36 120.46 214.25 120.81 C213.18 121.15 212.12 121.49 211.02 121.83 C208.17 122.93 206.35 124.11 204 126 C202.81 126.66 201.6 127.29 200.38 127.88 C199.69 128.21 199 128.55 198.3 128.89 C197.54 129.26 196.78 129.62 196 130 C194.21 130.87 192.41 131.75 190.62 132.62 C189.79 133.03 188.96 133.43 188.1 133.85 C185.87 134.94 185.87 134.94 184 137 C182.87 137.47 181.73 137.95 180.56 138.44 C177.1 139.67 177.1 139.67 175.5 141.62 C174 143 174 143 170.56 143.38 C166.85 143.62 166.85 143.62 165 146.5 C162.29 149.89 160.18 149.47 156 150 C155.55 150.62 155.09 151.24 154.62 151.88 C152.32 154.89 149.65 155.24 146.06 156.19 C143.65 156.91 143.65 156.91 142 160 C139.68 160.41 137.45 160.44 135.09 160.5 C134.4 160.66 133.71 160.83 133 161 C132.32 162.32 131.65 163.66 131 165 C128.91 165.94 128.91 165.94 126.5 166.56 C122.52 167.58 122.52 167.58 120 171 C118.22 171.96 118.22 171.96 116.06 172.81 C111.46 174.75 107.15 177.05 102.79 179.48 C99.25 181.41 95.63 183.18 92 184.92 C89.85 185.96 89.85 185.96 88 188 C86.87 188.29 85.73 188.58 84.56 188.88 C80.97 189.62 80.97 189.62 79.56 192 C77.38 194.79 75.21 194.76 71.84 195.43 C69.78 195.86 69.78 195.86 68.5 198.06 C67 200 67 200 65.16 200.3 C64.44 200.35 63.73 200.39 63 200.44 C60.88 200.53 60.88 200.53 59 201 C58.5 201.83 58.01 202.65 57.5 203.5 C57 204.33 56.51 205.15 56 206 C53.94 206.46 51.95 206.57 49.84 206.7 C47.14 207.14 46.57 208.84 45 211 C43.16 211.57 43.16 211.57 41 212 C37.71 212.58 37.71 212.58 35.5 215 C33.39 217.81 31.25 217.76 27.91 218.44 C25.21 219.23 23.93 221.01 22 223 C19.68 223.72 17.35 224.38 15 225 C13.3 225.95 11.63 226.94 10 228 C9.3 228.31 8.6 228.62 7.88 228.94 C5.57 230.24 4.46 231.81 3 234 C1.05 233.3 1.05 233.3 -1 232 C-1.6 229.92 -1.6 229.92 -1.74 227.2 C-1.8 226.11 -1.85 225.02 -1.91 223.9 C-2.1 215.56 -2.15 207.22 -2.15 198.87 C-2.15 196.75 -2.15 194.63 -2.16 192.5 C-2.16 186.77 -2.17 181.03 -2.17 175.3 C-2.17 171.71 -2.17 168.13 -2.17 164.55 C-2.18 152.04 -2.19 139.53 -2.19 127.03 C-2.18 115.37 -2.2 103.71 -2.21 92.05 C-2.22 82.04 -2.23 72.02 -2.23 62 C-2.23 56.02 -2.23 50.04 -2.24 44.06 C-2.25 38.44 -2.25 32.83 -2.24 27.22 C-2.24 25.15 -2.25 23.09 -2.25 21.03 C-2.26 18.22 -2.25 15.41 -2.25 12.6 C-2.25 11.78 -2.26 10.96 -2.26 10.11 C-2.24 6.27 -2.19 3.25 0 0 Z " fill="#020202" transform="translate(530,505)"/>
</svg>
